<?xml version="1.0" standalone="no"?>
<!DOCTYPE svg PUBLIC "-//W3C//DTD SVG 20010904//EN"
 "http://www.w3.org/TR/2001/REC-SVG-20010904/DTD/svg10.dtd">
<svg version="1.0" xmlns="http://www.w3.org/2000/svg"
 width="512.000000pt" height="512.000000pt" viewBox="0 0 512.000000 512.000000"
 preserveAspectRatio="xMidYMid meet">
<metadata>
Created by potrace 1.11, written by Peter Selinger 2001-2013
</metadata>
<g transform="translate(0.000000,512.000000) scale(0.100000,-0.100000)"
fill="#000000" stroke="none">
<path d="M2395 4974 c-385 -29 -661 -102 -970 -258 -408 -207 -721 -493 -988
-904 -33 -50 -143 -264 -173 -337 -32 -75 -89 -249 -114 -345 -46 -177 -61
-306 -67 -545 -5 -202 -3 -249 17 -385 61 -434 222 -816 490 -1164 48 -63 50
-64 155 -181 82 -91 282 -261 404 -343 314 -211 653 -343 1026 -399 140 -21
538 -24 670 -5 195 29 428 91 605 162 161 64 402 202 555 318 168 127 353 315
478 482 273 368 432 778 479 1230 17 173 5 488 -27 655 -95 507 -307 918 -660
1283 -381 395 -920 662 -1450 722 -103 11 -356 20 -430 14z m70 -178 c2 -42 7
-92 11 -111 6 -32 4 -35 -17 -35 -15 0 -47 25 -96 74 l-73 74 0 -83 c0 -64 -3
-84 -15 -89 -12 -4 -15 5 -15 47 0 29 -3 82 -7 120 -5 61 -4 67 13 67 10 0 42
-24 70 -53 29 -28 64 -63 79 -77 l28 -25 -6 82 c-5 59 -3 83 6 86 18 6 17 6
22 -77z m309 63 c13 -6 22 -17 20 -24 -4 -9 -15 -9 -49 2 -39 13 -47 13 -79
-2 -90 -43 -53 -173 47 -163 24 2 33 8 35 26 3 17 -2 22 -17 22 -12 0 -21 6
-21 15 0 11 11 15 40 15 l40 0 -7 -47 c-3 -27 -7 -50 -9 -52 -2 -2 -23 -6 -47
-8 -61 -7 -114 12 -132 47 -44 86 12 180 107 180 26 0 58 -5 72 -11z m169 -14
c15 -6 14 -18 -13 -157 -11 -56 -17 -68 -33 -68 -11 0 -17 5 -14 13 3 7 13 59
23 115 9 56 19 102 20 102 1 0 9 -2 17 -5z m-815 -27 c-3 -7 -21 -16 -41 -19
-47 -8 -50 -11 -42 -48 7 -34 19 -37 73 -22 25 8 32 7 32 -5 0 -8 -6 -14 -12
-14 -7 0 -30 -5 -51 -11 -32 -8 -36 -13 -27 -25 7 -7 10 -21 6 -29 -8 -22 17
-29 64 -17 28 7 40 6 43 -2 2 -6 -17 -16 -47 -22 -28 -6 -58 -13 -65 -15 -11
-3 -19 16 -32 76 -31 141 -32 138 26 151 67 16 77 16 73 2z m995 -20 c8 -13
29 -58 48 -100 19 -43 37 -77 40 -78 3 0 16 34 28 75 12 41 25 75 29 75 12 0
38 -20 26 -20 -6 0 -11 -6 -12 -12 -1 -16 -7 -38 -15 -58 -3 -8 -13 -43 -23
-77 -24 -90 -42 -83 -95 39 -42 95 -59 117 -59 81 -1 -38 -39 -128 -55 -131
-13 -3 -15 1 -11 16 4 11 15 51 26 89 36 130 47 145 73 101z m-1386 -198 c-2
-66 -6 -123 -9 -126 -4 -3 -45 34 -93 82 -71 71 -85 88 -72 96 12 6 30 -5 73
-47 31 -30 59 -55 61 -55 1 0 3 35 3 78 0 80 3 92 27 92 10 0 12 -25 10 -120z
m1761 83 c30 -13 39 -22 33 -31 -6 -11 -16 -10 -51 4 -41 17 -43 17 -56 -1
-22 -30 -17 -40 33 -64 71 -34 31 -49 -48 -17 -10 5 -20 -3 -31 -27 l-16 -33
44 -13 c50 -15 60 -24 41 -39 -8 -6 -30 -1 -69 17 l-57 26 35 80 c20 44 40 91
45 104 10 26 25 25 97 -6z m200 -100 c60 -34 58 -31 44 -45 -9 -9 -21 -7 -51
10 l-40 23 -16 -32 c-9 -17 -15 -32 -13 -32 52 -26 78 -42 78 -49 0 -13 -31
-22 -39 -12 -6 9 -47 34 -56 34 -2 0 -11 -14 -20 -30 l-16 -30 46 -22 c25 -12
45 -26 45 -30 0 -20 -31 -18 -67 5 -22 14 -46 26 -55 28 -12 3 -3 26 41 106
31 56 60 103 64 103 5 0 29 -12 55 -27z m-2224 8 c3 -5 -14 -21 -39 -35 l-45
-27 17 -27 c9 -15 18 -29 20 -31 1 -2 19 6 39 18 23 14 40 19 46 13 6 -6 -6
-18 -31 -33 -23 -12 -41 -26 -41 -30 0 -4 9 -17 19 -30 l20 -24 42 24 c32 18
43 20 49 10 6 -8 -4 -19 -28 -32 -21 -11 -49 -28 -64 -38 l-26 -19 -51 95
c-28 53 -51 99 -51 104 0 9 97 69 112 70 4 1 9 -3 12 -8z m1331 -82 c290 -33
613 -152 860 -316 414 -275 716 -694 839 -1163 54 -206 60 -260 61 -515 0
-257 -6 -313 -55 -505 -165 -649 -643 -1172 -1280 -1403 -179 -65 -381 -103
-590 -113 -603 -28 -1194 222 -1597 674 -120 135 -206 264 -294 437 -302 600
-287 1298 42 1890 110 198 281 406 447 546 450 376 980 535 1567 468z m1100
-60 c50 -44 43 -95 -16 -117 -21 -8 -24 -17 -27 -68 -4 -64 -5 -69 -21 -59 -6
3 -11 30 -11 60 0 93 -19 109 -58 50 -23 -36 -36 -43 -47 -25 -8 12 116 189
132 190 7 0 28 -14 48 -31z m-2603 -57 c27 -27 34 -91 14 -131 -14 -27 -99
-100 -118 -101 -7 0 -128 167 -128 178 0 10 98 76 124 83 31 8 86 -7 108 -29z
m2793 -91 c10 -18 -147 -187 -164 -177 -12 8 13 44 95 135 46 51 58 59 69 42z
m120 -132 c2 -13 -4 -59 -12 -102 -22 -118 -18 -122 55 -53 52 49 64 57 77 46
13 -11 11 -15 -13 -33 -15 -11 -55 -47 -89 -81 -43 -41 -66 -57 -73 -50 -10
10 2 179 17 229 6 22 5 21 -91 -67 -28 -26 -44 -34 -51 -27 -12 12 149 173
167 167 6 -2 12 -15 13 -29z m-3359 -158 c5 -23 7 -23 89 -19 79 4 84 3 70
-12 -10 -12 -39 -19 -87 -24 -40 -3 -74 -9 -76 -11 -4 -4 31 -37 62 -57 7 -5
5 -13 -6 -24 -16 -16 -22 -12 -97 56 -45 40 -81 76 -81 80 0 4 6 13 13 19 11
8 19 5 37 -14 36 -38 43 -31 37 34 -4 46 -1 62 12 75 15 16 16 14 19 -31 1
-26 5 -59 8 -72z m3613 -136 c39 -33 59 -91 39 -111 -12 -12 -17 -7 -37 40
-16 40 -29 57 -50 64 -51 18 -121 -31 -121 -84 0 -26 45 -84 65 -84 21 0 28
19 14 36 -10 13 -10 17 2 25 21 13 23 12 43 -22 21 -35 21 -34 -45 -69 l-36
-19 -25 27 c-51 54 -61 107 -33 162 32 62 129 81 184 35z m-3726 -71 c90 -14
105 -19 95 -31 -6 -8 -23 -13 -37 -13 -14 1 -33 2 -41 1 -16 -1 -67 -81 -52
-81 5 0 15 -13 22 -29 12 -29 8 -51 -9 -51 -11 0 -131 187 -131 204 0 18 11
27 29 22 9 -3 64 -12 124 -22z m-151 -231 c72 -34 95 -50 88 -58 -6 -7 -45
-22 -88 -35 -42 -13 -90 -28 -105 -35 l-29 -12 71 -33 c39 -19 70 -39 68 -44
-7 -18 -47 -8 -133 35 -88 43 -98 63 -41 74 41 8 187 55 187 61 0 2 -13 10
-30 19 -16 9 -30 13 -30 10 0 -3 -18 6 -39 19 -21 14 -42 22 -45 18 -4 -3 -4
1 0 11 9 24 18 22 126 -30z m4073 -107 c36 -15 59 -51 70 -106 5 -29 2 -37
-14 -48 -19 -11 -21 -10 -21 19 0 32 -25 95 -42 105 -44 28 -122 -4 -133 -54
-6 -31 22 -95 53 -118 13 -9 12 -12 -8 -17 -13 -3 -28 -3 -33 0 -14 9 -47 85
-47 111 0 36 28 81 63 102 38 24 66 25 112 6z m-4111 -221 c-3 -8 -22 -17 -41
-21 -29 -6 -38 -14 -54 -52 l-20 -45 30 -26 c20 -18 27 -31 23 -43 -6 -15 -22
-5 -99 60 -89 75 -106 98 -80 107 10 4 187 29 234 34 7 0 10 -6 7 -14z m4214
-78 c34 -16 51 -56 48 -110 -4 -82 -73 -131 -147 -107 -56 19 -79 51 -79 111
0 98 89 151 178 106z m-4380 -187 c65 -10 82 -16 80 -28 -2 -8 -43 -40 -92
-71 -49 -31 -91 -62 -94 -69 -2 -7 0 -12 5 -10 18 5 143 -14 149 -23 11 -18
-31 -22 -105 -9 -42 8 -86 14 -98 14 -43 2 -23 31 53 76 41 25 81 51 89 58 7
6 19 12 26 12 8 0 9 3 3 9 -5 5 -42 14 -82 20 -41 5 -76 12 -79 15 -12 12 12
28 36 23 14 -3 63 -11 109 -17z m4482 -149 c0 -13 -19 -18 -86 -26 -114 -12
-126 -15 -115 -29 13 -16 1 -88 -15 -93 -10 -3 -28 126 -19 135 13 13 235 25
235 13z m10 -245 c0 -10 -25 -15 -100 -21 l-100 -7 0 -48 c0 -33 -5 -50 -15
-54 -13 -4 -15 7 -15 69 l0 75 115 0 c91 0 115 -3 115 -14z m-4481 -113 c27
-22 38 -83 21 -122 -16 -40 -60 -58 -147 -63 -65 -3 -73 -2 -73 14 0 15 9 18
64 18 119 0 159 37 121 111 l-17 32 -89 -5 c-69 -4 -89 -3 -89 8 0 16 26 21
116 23 55 1 77 -3 93 -16z m4463 -119 c14 -4 15 -10 6 -35 -6 -16 -8 -44 -4
-62 4 -23 3 -28 -4 -17 -8 13 -10 12 -10 -2 0 -10 -5 -18 -11 -18 -8 0 -10 17
-7 49 4 44 3 50 -16 55 -38 10 -44 6 -52 -41 -12 -63 -37 -72 -34 -12 4 66 2
77 -10 59 -6 -10 -10 -11 -10 -2 0 6 -8 12 -19 12 -20 0 -31 -25 -31 -72 0
-19 -5 -28 -16 -28 -14 0 -16 8 -10 46 3 26 6 56 6 66 0 19 5 20 103 13 56 -3
110 -9 119 -11z m-4461 -208 c-39 -40 -51 -69 -33 -80 4 -3 28 0 51 5 24 5 46
7 49 4 14 -13 -29 -33 -93 -43 -38 -6 -84 -14 -101 -18 -30 -6 -32 -4 -38 29
-13 69 32 119 89 97 22 -8 30 -4 68 37 33 36 43 42 45 28 2 -10 -13 -35 -37
-59z m4367 -29 c13 -6 30 -23 37 -37 27 -52 -5 -170 -46 -167 -16 1 -16 3 2
28 28 40 25 103 -6 134 -51 52 -131 17 -142 -63 -5 -40 -4 -42 20 -42 16 0 26
7 30 20 3 13 11 18 20 14 12 -4 13 -12 4 -40 -10 -34 -12 -35 -46 -28 -20 3
-42 7 -48 7 -8 0 -13 14 -13 32 0 129 85 192 188 142z m-4260 -223 c29 -33 30
-92 1 -127 -13 -18 -43 -34 -86 -47 -37 -11 -72 -25 -80 -31 -10 -9 -13 -7
-13 9 0 16 13 25 63 41 35 12 73 28 85 37 29 20 29 65 -1 100 l-24 27 -74 -24
c-41 -13 -80 -25 -86 -27 -7 -2 -13 3 -13 10 0 18 147 69 180 62 14 -2 35 -16
48 -30z m4138 -80 c54 -19 100 -37 102 -38 1 -2 -4 -19 -12 -37 -7 -19 -19
-46 -25 -61 -6 -17 -16 -26 -24 -22 -12 4 -12 12 2 49 17 49 17 51 -20 60 -24
6 -28 3 -39 -29 -12 -38 -24 -51 -39 -41 -6 3 -4 19 5 40 19 47 18 52 -16 63
-33 12 -32 12 -49 -40 -7 -21 -19 -38 -27 -38 -8 0 -14 3 -14 6 0 17 44 124
50 124 4 0 52 -16 106 -36z m-4029 -193 c62 -92 -11 -216 -115 -196 -52 10
-67 20 -86 59 -19 39 -21 82 -5 92 12 7 31 -15 23 -28 -8 -12 24 -65 48 -82
34 -24 66 -19 99 13 33 33 36 58 13 107 -17 35 -28 40 -53 25 -10 -6 -10 -13
-2 -29 9 -16 7 -21 -8 -25 -13 -3 -22 3 -30 20 -16 36 -14 41 27 62 48 26 61
23 89 -18z m3943 -130 c36 -69 -36 -135 -90 -81 -24 24 -26 63 -4 84 22 23 81
21 94 -3z m-3838 -188 c24 -21 23 -58 -2 -83 -28 -28 -64 -25 -89 6 -25 32
-26 43 -5 72 18 27 69 30 96 5z m848 -639 c0 -5 -54 -123 -76 -165 -13 -26
-13 -27 41 -54 42 -22 51 -30 42 -40 -13 -14 -25 -14 -47 0 -8 5 -34 19 -57
30 l-42 21 54 112 c41 86 57 110 69 106 9 -3 16 -8 16 -10z m2060 -91 c89 -68
99 -79 85 -90 -14 -10 -22 -8 -43 13 -32 29 -33 29 -83 3 -38 -19 -40 -22 -38
-60 3 -30 -1 -43 -14 -50 -20 -12 -22 -5 -37 143 -12 109 -9 134 16 124 7 -3
59 -40 114 -83z m-1856 -30 c-4 -16 -15 -49 -25 -74 -28 -74 -16 -118 39 -137
50 -17 67 -1 96 92 21 69 31 86 46 86 21 0 36 -16 20 -22 -6 -2 -20 -37 -31
-78 -11 -41 -29 -84 -39 -94 -26 -26 -99 -25 -144 3 -55 34 -57 49 -20 167 21
67 30 84 45 84 16 0 18 -5 13 -27z m1579 -26 c9 -23 27 -73 41 -111 31 -83 22
-97 -39 -62 -99 57 -173 96 -181 96 -5 0 -4 -4 1 -8 6 -4 22 -42 36 -84 23
-66 24 -78 11 -83 -21 -8 -26 0 -55 80 -14 39 -32 87 -41 107 -15 35 -15 37 4
43 13 4 50 -12 116 -49 54 -31 100 -54 103 -51 3 3 -1 20 -8 38 -39 98 -44
119 -30 127 19 12 25 6 42 -43z m-1193 -67 c55 -15 95 -62 94 -110 -3 -112
-65 -146 -213 -116 -13 3 -26 8 -29 10 -2 3 3 58 13 122 l17 116 42 -6 c22 -4
57 -11 76 -16z m855 -109 c55 -77 72 -107 63 -113 -20 -12 -24 -10 -44 27 -17
32 -22 35 -49 29 -26 -6 -47 -10 -77 -13 -5 -1 -8 -17 -8 -36 0 -24 -6 -37
-20 -45 -11 -6 -20 -9 -20 -7 0 1 11 61 25 132 14 72 25 131 25 133 0 2 6 2
14 0 8 -2 49 -50 91 -107z m-615 24 l0 -55 70 0 70 0 0 50 c0 42 3 50 19 50
17 0 19 -10 20 -119 2 -112 1 -119 -19 -124 -18 -5 -20 -1 -20 49 l0 54 -32 0
c-18 0 -50 3 -70 6 l-37 6 -3 -53 c-2 -42 -7 -55 -20 -57 -16 -3 -18 8 -18
116 0 120 2 132 27 132 9 0 13 -16 13 -55z m329 -17 c18 -119 19 -172 0 -176
-13 -2 -18 17 -30 118 -8 66 -13 123 -10 125 17 18 29 -3 40 -67z"/>
<path d="M2375 4460 c-152 -13 -352 -59 -510 -117 -96 -35 -285 -130 -374
-188 -274 -178 -524 -451 -676 -740 -298 -566 -295 -1258 6 -1824 97 -182 208
-328 365 -482 291 -284 621 -453 1034 -531 157 -29 484 -32 640 -5 865 149
1513 810 1636 1670 22 160 16 464 -15 622 -142 749 -708 1354 -1439 1539 -209
54 -456 74 -667 56z m520 -88 c389 -73 722 -248 1001 -526 360 -361 555 -833
554 -1341 -3 -868 -589 -1617 -1435 -1831 -284 -72 -636 -72 -920 0 -201 51
-430 151 -590 259 -284 191 -529 476 -668 777 -310 671 -205 1456 272 2023
292 347 704 577 1161 647 168 26 463 22 625 -8z"/>
<path d="M2610 4053 c-8 -1 -64 -5 -125 -7 -114 -5 -305 -26 -397 -45 -29 -6
-66 -13 -83 -15 -95 -11 -143 -21 -260 -53 -71 -19 -148 -41 -170 -48 -126
-42 -211 -77 -281 -115 -44 -24 -91 -49 -106 -57 -25 -13 -26 -17 -33 -131
-12 -179 2 -895 19 -1047 49 -422 82 -555 198 -785 238 -474 724 -932 1126
-1061 l73 -23 67 23 c86 30 256 119 352 184 319 216 608 546 785 897 51 101
112 292 139 435 46 247 56 417 56 985 l-1 515 -22 16 c-114 83 -385 185 -633
238 -204 44 -648 103 -704 94z m182 -187 c62 -8 142 -17 178 -21 80 -8 346
-59 420 -81 196 -56 378 -126 393 -151 3 -5 7 -116 10 -248 6 -254 -4 -564
-24 -782 l-12 -133 -460 0 c-373 0 -457 2 -449 13 7 8 7 18 2 27 -7 11 -31 13
-108 11 l-100 -3 -1 691 c-2 684 -2 691 18 691 11 0 71 -6 133 -14z m-632
-526 c0 -33 -2 -60 -5 -60 -2 0 -14 18 -25 39 -27 53 -55 71 -112 71 l-48 0 0
-227 c0 -126 4 -233 8 -239 4 -7 23 -19 42 -27 34 -14 31 -15 -80 -15 -84 0
-107 2 -84 9 17 5 36 15 42 22 9 11 16 254 12 455 0 19 -5 22 -46 22 -59 0
-78 -11 -110 -65 -14 -25 -27 -45 -27 -45 -1 0 0 27 1 60 l4 60 214 0 214 0 0
-60z m434 -669 c15 -16 21 -34 21 -67 0 -42 -4 -50 -47 -89 l-47 -42 65 -82
c36 -44 69 -81 74 -81 4 0 21 29 36 65 16 36 32 65 36 65 9 0 -2 -30 -38 -98
l-27 -53 34 -35 c19 -19 53 -41 79 -49 l45 -14 -68 0 c-64 -1 -69 1 -96 32
l-29 32 -24 -21 c-13 -12 -35 -29 -50 -39 -24 -15 -28 -15 -28 -2 0 8 12 18
28 22 30 7 62 32 62 48 0 6 -17 31 -38 56 -21 25 -51 65 -67 88 -17 24 -35 43
-41 43 -17 0 -52 -42 -59 -71 -4 -18 -15 -29 -31 -32 -36 -7 -29 11 27 67 l51
51 -27 48 c-42 76 -30 153 28 177 35 16 107 5 131 -19z m61 -211 c3 -5 1 -10
-4 -10 -6 0 -11 5 -11 10 0 6 2 10 4 10 3 0 8 -4 11 -10z m-309 -186 c11 -74
75 -134 144 -134 l30 0 0 -630 c0 -346 -3 -630 -6 -630 -12 0 -162 79 -220
116 -241 153 -465 378 -661 665 -126 184 -214 408 -232 587 l-7 72 472 0 473
0 7 -46z m175 19 c6 -43 -1 -73 -17 -73 -24 0 -64 47 -64 75 0 22 4 25 39 25
35 0 39 -3 42 -27z m787 -332 c90 -46 81 -178 -16 -234 -21 -12 -60 -22 -103
-25 l-69 -5 0 -91 c0 -100 9 -122 50 -129 14 -2 -20 -4 -75 -4 -55 -1 -91 2
-80 4 44 11 45 15 45 248 0 233 -1 237 -45 248 -11 2 42 5 118 6 118 1 143 -2
175 -18z"/>
<path d="M2497 2683 c-19 -5 -47 -52 -47 -81 0 -21 55 -112 69 -112 5 0 23 13
40 29 27 25 31 36 31 80 0 73 -30 100 -93 84z"/>
<path d="M3120 1846 c0 -130 3 -139 46 -131 11 2 30 4 43 4 12 1 38 16 57 35
28 28 34 41 34 79 0 99 -35 137 -125 137 l-55 0 0 -124z"/>
<path d="M3845 4414 c-17 -26 -17 -28 1 -41 41 -30 74 16 36 50 -18 17 -20 16
-37 -9z"/>
<path d="M1168 4377 c-26 -13 -43 -29 -42 -38 1 -18 82 -129 94 -129 4 0 22
13 39 29 37 35 42 85 11 123 -28 36 -53 39 -102 15z"/>
<path d="M650 3783 c0 -12 30 -53 39 -53 4 0 13 11 19 25 10 22 9 25 -7 25
-11 0 -26 3 -35 6 -9 3 -16 2 -16 -3z"/>
<path d="M382 3203 l-23 -4 25 -20 c32 -25 43 -24 48 6 5 26 1 28 -50 18z"/>
<path d="M4659 3147 c-55 -43 -59 -99 -11 -149 52 -55 142 -21 142 54 0 41
-34 98 -57 98 -10 0 -27 2 -38 5 -11 3 -27 -1 -36 -8z"/>
<path d="M272 2108 c-10 -13 -5 -68 7 -68 44 1 60 25 45 64 -7 19 -37 21 -52
4z"/>
<path d="M3536 592 c-10 -16 5 -72 20 -72 7 0 20 7 29 17 16 15 16 17 -2 26
-10 5 -23 16 -30 24 -6 8 -14 10 -17 5z"/>
<path d="M2068 404 c-3 -48 -8 -87 -14 -120 -6 -32 -6 -32 46 -39 71 -10 104
13 108 76 2 38 -1 48 -25 71 -17 16 -45 30 -71 34 -41 6 -42 6 -44 -22z"/>
<path d="M2927 390 c-3 -8 -8 -32 -11 -54 l-5 -38 31 6 c42 8 44 11 22 43 -11
15 -22 35 -25 43 -6 13 -7 13 -12 0z"/>
</g>
</svg>
